<svg width="40" height="40" viewBox="0 0 40 40" fill="none" xmlns="http://www.w3.org/2000/svg">
<path d="M5.46399 2.56H14.2275C17.5741 2.56 20.1691 3.2123 22.0126 4.5169C23.8561 5.79315 24.7778 8.11874 24.7778 11.4937C24.7778 13.5357 24.3382 15.1523 23.459 16.3434C22.6082 17.5062 21.3745 18.2294 19.7579 18.513C21.7715 18.7966 23.2747 19.6475 24.2673 21.0655C25.2883 22.4836 25.7988 24.4263 25.7988 26.8937C25.7988 33.6436 22.4522 37.0185 15.759 37.0185H5.46399V2.56ZM14.2275 16.471C15.9292 16.471 17.092 16.0882 17.7159 15.3224C18.3399 14.5567 18.6518 13.3372 18.6518 11.6639C18.6518 10.1324 18.2548 9.04047 17.4607 8.38817C16.6666 7.70751 15.4329 7.36718 13.7596 7.36718H12.4408V16.471H14.2275ZM14.4402 32.0837C16.1419 32.0837 17.333 31.6583 18.0137 30.8075C18.7227 29.9567 19.0772 28.6095 19.0772 26.7661C19.0772 24.7808 18.7085 23.3627 17.9712 22.5119C17.2621 21.6327 16.0426 21.1931 14.3126 21.1931H12.4408V32.0837H14.4402Z" fill="#E3572E"/>
<path d="M29.338 30.8075H35.464V37.0185H29.338V30.8075Z" fill="#E3572E"/>
</svg>
