<?xml version="1.0" standalone="no"?>
<!DOCTYPE svg PUBLIC "-//W3C//DTD SVG 20010904//EN"
 "http://www.w3.org/TR/2001/REC-SVG-20010904/DTD/svg10.dtd">
<svg version="1.0" xmlns="http://www.w3.org/2000/svg"
 width="700.000000pt" height="700.000000pt" viewBox="0 0 700.000000 700.000000"
 preserveAspectRatio="xMidYMid meet">
<metadata>
Created by potrace 1.11, written by Peter Selinger 2001-2013
</metadata>
<g transform="translate(0.000000,700.000000) scale(0.100000,-0.100000)"
fill="#000000" stroke="none">
<path d="M985 6550 l-29 -5 -1 -3008 c0 -3000 0 -3008 20 -3012 29 -6 2035 1
2065 8 14 3 50 8 80 12 115 14 138 17 237 41 614 146 981 533 1107 1167 25
122 29 156 43 317 19 235 2 519 -43 727 -14 62 -34 141 -45 175 -32 96 -111
255 -170 338 -49 70 -202 230 -220 230 -4 0 -20 11 -36 23 -25 21 -165 97
-218 118 -47 18 -138 43 -270 74 -26 6 -18 10 65 31 163 43 316 126 431 236
113 107 223 295 269 458 22 76 23 84 40 180 37 208 30 584 -15 795 -2 6 -8 37
-15 70 -46 221 -159 436 -306 581 -155 153 -403 282 -682 354 -84 22 -96 24
-182 40 -92 16 -106 18 -161 25 -30 3 -67 9 -84 11 -68 12 -1821 24 -1880 14z
m1640 -852 c209 -28 372 -99 474 -208 63 -68 131 -211 146 -311 22 -143 24
-217 11 -379 -9 -115 -16 -158 -43 -250 -78 -271 -244 -394 -573 -425 -86 -8
-449 -10 -457 -2 -3 4 -6 362 -7 797 l-1 791 190 -2 c105 -1 222 -6 260 -11z
m175 -2437 c152 -39 269 -108 353 -211 65 -79 131 -234 152 -359 3 -19 8 -37
10 -40 9 -15 20 -188 20 -326 0 -276 -27 -430 -105 -590 -83 -171 -217 -273
-420 -319 -105 -24 -163 -29 -403 -30 -195 -1 -227 1 -228 14 -1 21 -1 1862 0
1879 1 11 47 12 269 8 229 -4 279 -8 352 -26z"/>
<path d="M5137 1603 c-3 -7 -2 -1058 2 -1074 0 -4 241 -7 534 -7 l533 0 0 544
0 544 -532 0 c-293 0 -535 -3 -537 -7z"/>
</g>
</svg>
